<mxfile host="app.diagrams.net" agent="Mozilla/5.0 (Windows NT 10.0; Win64; x64) AppleWebKit/537.36 (KHTML, like Gecko) Chrome/116.0.0.0 Safari/537.36" version="26.2.12">
  <diagram name="Page-1" id="GiAVJrHIbYEuYDBby1ty">
    <mxGraphModel dx="1044" dy="579" grid="1" gridSize="10" guides="1" tooltips="1" connect="1" arrows="1" fold="1" page="1" pageScale="1" pageWidth="827" pageHeight="1169" math="0" shadow="0">
      <root>
        <mxCell id="0" />
        <mxCell id="1" parent="0" />
        <mxCell id="JoGWWKEwQnywMiORZw4i-1" value="Account" style="swimlane;whiteSpace=wrap;html=1;" parent="1" vertex="1">
          <mxGeometry x="100" y="90" width="200" height="180" as="geometry" />
        </mxCell>
        <mxCell id="JoGWWKEwQnywMiORZw4i-5" value="accountId int" style="text;html=1;align=center;verticalAlign=middle;resizable=0;points=[];autosize=1;strokeColor=none;fillColor=none;" parent="JoGWWKEwQnywMiORZw4i-1" vertex="1">
          <mxGeometry y="28" width="90" height="30" as="geometry" />
        </mxCell>
        <mxCell id="JoGWWKEwQnywMiORZw4i-6" value="username string" style="text;html=1;align=center;verticalAlign=middle;resizable=0;points=[];autosize=1;strokeColor=none;fillColor=none;" parent="JoGWWKEwQnywMiORZw4i-1" vertex="1">
          <mxGeometry y="50" width="110" height="30" as="geometry" />
        </mxCell>
        <mxCell id="JoGWWKEwQnywMiORZw4i-7" value="email string" style="text;html=1;align=center;verticalAlign=middle;resizable=0;points=[];autosize=1;strokeColor=none;fillColor=none;" parent="JoGWWKEwQnywMiORZw4i-1" vertex="1">
          <mxGeometry y="78" width="80" height="30" as="geometry" />
        </mxCell>
        <mxCell id="JoGWWKEwQnywMiORZw4i-8" value="platformId int" style="text;html=1;align=center;verticalAlign=middle;resizable=0;points=[];autosize=1;strokeColor=none;fillColor=none;" parent="JoGWWKEwQnywMiORZw4i-1" vertex="1">
          <mxGeometry y="108" width="90" height="30" as="geometry" />
        </mxCell>
        <mxCell id="JoGWWKEwQnywMiORZw4i-9" value="name string" style="text;html=1;align=center;verticalAlign=middle;resizable=0;points=[];autosize=1;strokeColor=none;fillColor=none;" parent="JoGWWKEwQnywMiORZw4i-1" vertex="1">
          <mxGeometry y="138" width="90" height="30" as="geometry" />
        </mxCell>
        <mxCell id="JoGWWKEwQnywMiORZw4i-2" value="Platform" style="swimlane;whiteSpace=wrap;html=1;" parent="1" vertex="1">
          <mxGeometry x="500" y="90" width="200" height="100" as="geometry" />
        </mxCell>
        <mxCell id="JoGWWKEwQnywMiORZw4i-10" value="platformId int" style="text;html=1;align=center;verticalAlign=middle;resizable=0;points=[];autosize=1;strokeColor=none;fillColor=none;" parent="JoGWWKEwQnywMiORZw4i-2" vertex="1">
          <mxGeometry y="28" width="90" height="30" as="geometry" />
        </mxCell>
        <mxCell id="JoGWWKEwQnywMiORZw4i-11" value="name string" style="text;html=1;align=center;verticalAlign=middle;resizable=0;points=[];autosize=1;strokeColor=none;fillColor=none;" parent="JoGWWKEwQnywMiORZw4i-2" vertex="1">
          <mxGeometry y="58" width="90" height="30" as="geometry" />
        </mxCell>
        <mxCell id="JoGWWKEwQnywMiORZw4i-3" value="Spiel" style="swimlane;whiteSpace=wrap;html=1;" parent="1" vertex="1">
          <mxGeometry x="100" y="310" width="200" height="180" as="geometry" />
        </mxCell>
        <mxCell id="JoGWWKEwQnywMiORZw4i-12" value="spielId int" style="text;html=1;align=center;verticalAlign=middle;resizable=0;points=[];autosize=1;strokeColor=none;fillColor=none;" parent="JoGWWKEwQnywMiORZw4i-3" vertex="1">
          <mxGeometry y="20" width="70" height="30" as="geometry" />
        </mxCell>
        <mxCell id="ylCy36g614dbMugI2d6V-4" value="title string" style="text;html=1;align=center;verticalAlign=middle;resizable=0;points=[];autosize=1;strokeColor=none;fillColor=none;" vertex="1" parent="JoGWWKEwQnywMiORZw4i-3">
          <mxGeometry y="40" width="70" height="30" as="geometry" />
        </mxCell>
        <mxCell id="ylCy36g614dbMugI2d6V-5" value="playtime float" style="text;html=1;align=center;verticalAlign=middle;resizable=0;points=[];autosize=1;strokeColor=none;fillColor=none;" vertex="1" parent="JoGWWKEwQnywMiORZw4i-3">
          <mxGeometry y="60" width="90" height="30" as="geometry" />
        </mxCell>
        <mxCell id="ylCy36g614dbMugI2d6V-6" value="genreId int" style="text;html=1;align=center;verticalAlign=middle;resizable=0;points=[];autosize=1;strokeColor=none;fillColor=none;" vertex="1" parent="JoGWWKEwQnywMiORZw4i-3">
          <mxGeometry y="80" width="80" height="30" as="geometry" />
        </mxCell>
        <mxCell id="ylCy36g614dbMugI2d6V-7" value="platformId int" style="text;html=1;align=center;verticalAlign=middle;resizable=0;points=[];autosize=1;strokeColor=none;fillColor=none;" vertex="1" parent="JoGWWKEwQnywMiORZw4i-3">
          <mxGeometry x="-10" y="100" width="90" height="30" as="geometry" />
        </mxCell>
        <mxCell id="ylCy36g614dbMugI2d6V-8" value="name string" style="text;html=1;align=center;verticalAlign=middle;resizable=0;points=[];autosize=1;strokeColor=none;fillColor=none;" vertex="1" parent="JoGWWKEwQnywMiORZw4i-3">
          <mxGeometry x="-5" y="120" width="90" height="30" as="geometry" />
        </mxCell>
        <mxCell id="ylCy36g614dbMugI2d6V-9" value="lastPlayTime date" style="text;html=1;align=center;verticalAlign=middle;resizable=0;points=[];autosize=1;strokeColor=none;fillColor=none;" vertex="1" parent="JoGWWKEwQnywMiORZw4i-3">
          <mxGeometry x="-5" y="140" width="120" height="30" as="geometry" />
        </mxCell>
        <mxCell id="JoGWWKEwQnywMiORZw4i-4" value="Genre" style="swimlane;whiteSpace=wrap;html=1;" parent="1" vertex="1">
          <mxGeometry x="500" y="300" width="200" height="100" as="geometry" />
        </mxCell>
        <mxCell id="ylCy36g614dbMugI2d6V-12" value="name string" style="text;html=1;align=center;verticalAlign=middle;resizable=0;points=[];autosize=1;strokeColor=none;fillColor=none;" vertex="1" parent="JoGWWKEwQnywMiORZw4i-4">
          <mxGeometry x="-5" y="60" width="90" height="30" as="geometry" />
        </mxCell>
        <mxCell id="ylCy36g614dbMugI2d6V-10" value="genreId int" style="text;html=1;align=center;verticalAlign=middle;resizable=0;points=[];autosize=1;strokeColor=none;fillColor=none;" vertex="1" parent="JoGWWKEwQnywMiORZw4i-4">
          <mxGeometry x="-5" y="20" width="80" height="30" as="geometry" />
        </mxCell>
        <mxCell id="ylCy36g614dbMugI2d6V-11" value="spielId int" style="text;html=1;align=center;verticalAlign=middle;resizable=0;points=[];autosize=1;strokeColor=none;fillColor=none;" vertex="1" parent="JoGWWKEwQnywMiORZw4i-4">
          <mxGeometry y="38" width="70" height="30" as="geometry" />
        </mxCell>
        <mxCell id="ylCy36g614dbMugI2d6V-1" value="" style="endArrow=none;dashed=1;html=1;rounded=0;exitX=1;exitY=0.5;exitDx=0;exitDy=0;entryX=0;entryY=0.733;entryDx=0;entryDy=0;entryPerimeter=0;" edge="1" parent="1" source="JoGWWKEwQnywMiORZw4i-1" target="JoGWWKEwQnywMiORZw4i-10">
          <mxGeometry width="50" height="50" relative="1" as="geometry">
            <mxPoint x="390" y="330" as="sourcePoint" />
            <mxPoint x="440" y="280" as="targetPoint" />
          </mxGeometry>
        </mxCell>
        <mxCell id="ylCy36g614dbMugI2d6V-2" value="" style="endArrow=none;dashed=1;html=1;rounded=0;exitX=0.538;exitY=-0.012;exitDx=0;exitDy=0;exitPerimeter=0;" edge="1" parent="1" source="JoGWWKEwQnywMiORZw4i-3">
          <mxGeometry width="50" height="50" relative="1" as="geometry">
            <mxPoint x="390" y="330" as="sourcePoint" />
            <mxPoint x="208" y="270" as="targetPoint" />
          </mxGeometry>
        </mxCell>
        <mxCell id="ylCy36g614dbMugI2d6V-3" value="" style="endArrow=none;html=1;rounded=0;exitX=1;exitY=0.25;exitDx=0;exitDy=0;entryX=0;entryY=1;entryDx=0;entryDy=0;" edge="1" parent="1" source="JoGWWKEwQnywMiORZw4i-3" target="JoGWWKEwQnywMiORZw4i-2">
          <mxGeometry width="50" height="50" relative="1" as="geometry">
            <mxPoint x="390" y="330" as="sourcePoint" />
            <mxPoint x="440" y="280" as="targetPoint" />
          </mxGeometry>
        </mxCell>
        <mxCell id="ylCy36g614dbMugI2d6V-14" value="" style="endArrow=none;dashed=1;html=1;rounded=0;entryX=0.017;entryY=0.6;entryDx=0;entryDy=0;entryPerimeter=0;" edge="1" parent="1" target="ylCy36g614dbMugI2d6V-11">
          <mxGeometry width="50" height="50" relative="1" as="geometry">
            <mxPoint x="300" y="380" as="sourcePoint" />
            <mxPoint x="440" y="280" as="targetPoint" />
          </mxGeometry>
        </mxCell>
      </root>
    </mxGraphModel>
  </diagram>
</mxfile>
